<svg width="172" height="48" viewBox="-8 -4 172 48" fill="none" xmlns="http://www.w3.org/2000/svg">
  <g transform="translate(5 2) scale(0.072)">
    <path d="M533.5 278.4C533.5 260.9 531.9 244.3 528.8 228.2H272V323.2H418.9C412.6 357.2 393.9 385.9 365.6 405.1V473.1H451.7C502.1 426.7 533.5 358.3 533.5 278.4Z" fill="#4285F4"/>
    <path d="M272 544.3C344.6 544.3 405.5 520.2 450 479.1L363.9 411.1C339.9 427.2 309.2 436.7 272 436.7C201.3 436.7 141.4 389 119.9 324.9H30.1V395.1C74.4 482.9 165.3 544.3 272 544.3Z" fill="#34A853"/>
    <path d="M119.9 324.9C109.2 293 109.2 258.6 119.9 226.7V156.5H30.1C-6.1 228.5 -6.1 313.8 30.1 385.8L119.9 324.9Z" fill="#FBBC04"/>
    <path d="M272 107.7C311.5 107.1 349.4 121.9 378.4 148.8L457.6 69.6C410.9 24.8 349.9 -0.8 272 0C165.3 0 74.4 61.4 30.1 149.2L119.9 219.4C141.4 155.4 201.3 107.7 272 107.7Z" fill="#EA4335"/>
  </g>
  <text x="54" y="27.5" fill="#5F6368" font-family="Inter, Arial, sans-serif" font-size="23" font-weight="500" letter-spacing="-0.48">Pay</text>
</svg>
