<svg width="200" height="52" viewBox="0 0 200 52" fill="none" xmlns="http://www.w3.org/2000/svg">
  <g transform="translate(16 8) scale(0.7)">
    <path d="M31.55 20.64C31.49 14.38 36.67 11.33 36.91 11.18C33.98 6.91 29.43 6.32 27.83 6.28C23.98 5.88 20.26 8.6 18.3 8.6C16.3 8.6 13.28 6.32 10.02 6.38C5.82 6.44 1.88 8.86 -0.28 12.64C-4.73 20.35 -1.41 31.69 2.85 37.91C4.98 40.95 7.46 44.34 10.72 44.22C13.92 44.1 15.12 42.17 18.98 42.17C22.81 42.17 23.94 44.22 27.27 44.16C30.69 44.1 32.84 41.1 34.9 38.03C37.36 34.55 38.34 31.13 38.38 30.95C38.3 30.92 31.61 28.38 31.55 20.64Z" fill="#101215" transform="translate(0 -5)"/>
    <path d="M25.34 2.4C27.06 0.28 29.45 -1.38 31.8 -1.5C32.1 1.46 30.92 4.36 29.24 6.38C27.54 8.44 25.2 10.03 22.92 9.84C22.58 7 23.96 4.46 25.34 2.4Z" fill="#101215" transform="translate(0 2)"/>
  </g>
  <text x="55" y="31" fill="#101215" font-family="Inter, Arial, sans-serif" font-size="22" font-weight="700" letter-spacing="-0.35">Pay</text>
</svg>
